# Blender 3.3.0
# www.blender.org
mtllib 1ed.mtl
o Cube
v 0.240416 0.070000 -0.000000
v 0.240416 -0.070000 -0.000000
v 0.000000 0.070000 -0.240416
v 0.000000 -0.070000 -0.240416
v -0.000000 0.070000 0.240416
v -0.000000 -0.070000 0.240416
v -0.000000 0.070000 -0.010135
v -0.000000 -0.070000 -0.010135
v 0.229149 0.070000 -0.000062
v 0.008731 0.070000 -0.220480
v 0.009267 0.070000 0.218211
v 0.229149 0.084593 -0.000062
v 0.008731 0.084593 -0.220480
v 0.009267 0.084593 0.218211
vn 0.7071 -0.0000 -0.7071
vn -1.0000 -0.0000 -0.0000
vn 0.7071 -0.0000 0.7071
vn -0.0000 1.0000 -0.0000
vn -0.0000 -1.0000 -0.0000
vn 0.7045 -0.0000 0.7097
vn -1.0000 -0.0000 0.0012
vt 0.375000 0.000000
vt 0.375000 1.000000
vt 0.125000 0.750000
vt 0.625000 0.000000
vt 0.625000 1.000000
vt 0.875000 0.750000
vt 0.375000 0.250000
vt 0.125000 0.500000
vt 0.625000 0.250000
vt 0.875000 0.500000
vt 0.375000 0.750000
vt 0.625000 0.750000
vt 0.375000 0.500000
vt 0.625000 0.500000
vt 0.131946 0.743081
vt 0.136593 0.509605
vt 0.364775 0.737631
vt 0.131946 0.743081
vt 0.136593 0.509605
vt 0.364775 0.737631
s 0
usemtl Material
f 1/1/1 2/4/1 4/9/1 3/7/1
f 3/7/2 4/9/2 8/14/2 7/13/2
f 7/13/2 8/14/2 6/12/2 5/11/2
f 5/11/3 6/12/3 2/5/3 1/2/3
f 3/8/4 7/13/4 5/11/4 11/17/4 10/16/4
f 8/14/5 4/10/5 2/6/5 6/12/5
f 11/17/6 9/15/6 12/18/6 14/20/6
f 9/15/4 11/17/4 5/11/4 1/3/4
f 1/3/4 3/8/4 10/16/4 9/15/4
f 13/19/4 14/20/4 12/18/4
f 10/16/7 11/17/7 14/20/7 13/19/7
f 9/15/1 10/16/1 13/19/1 12/18/1
